<svg width="24" height="24" viewBox="0 0 24 24" fill="none" xmlns="http://www.w3.org/2000/svg">
  <g>
    <path d="M16.2857 23.1429V18.8571H19.7143C20.1689 18.8571 20.605 18.6765 20.9265 18.355C21.2479 18.0334 21.4286 17.5975 21.4286 17.1428V10.2856C21.4282 8.60996 20.9813 6.96466 20.1339 5.51907C19.2866 4.07348 18.0691 2.87986 16.6071 2.06106C15.1451 1.24228 13.4913 0.827905 11.816 0.860607C10.1407 0.89331 8.50428 1.37191 7.07534 2.24713C5.64641 3.12234 4.47655 4.36258 3.68616 5.84012C2.89579 7.31768 2.51347 8.97918 2.57854 10.6536C2.64364 12.328 3.15377 13.9548 4.05645 15.3665C4.95912 16.7783 6.22173 17.9239 7.71429 18.6857V23.1429" 
          stroke="currentColor" 
          stroke-width="2" 
          stroke-linecap="round" 
          stroke-linejoin="round"/>
    <path d="M9.42863 5.67688C7.06375 7.04224 6.07985 9.88091 6.96693 12.3641C7.17175 12.9374 7.79061 13.2257 8.37912 13.0698C11.3569 12.281 14.3887 10.1471 16.2307 8.48339C16.7187 8.0426 16.8197 7.30597 16.385 6.81256C14.6688 4.86465 11.7634 4.32891 9.42863 5.67688Z" 
          stroke="currentColor" 
          stroke-width="2" 
          stroke-linecap="round" 
          stroke-linejoin="round"/>
  </g>
</svg>