<svg width="24" height="24" viewBox="0 0 24 24" fill="none" xmlns="http://www.w3.org/2000/svg">
<mask id="path-1-inside-1_56_13" fill="white">
<path d="M2 5.25C2 3.45507 3.45507 2 5.25 2H16.75C18.5449 2 20 3.45507 20 5.25V8.00934C19.4951 7.95675 18.9878 7.99076 18.5 8.10566V7H3.5V16.75C3.5 17.7165 4.2835 18.5 5.25 18.5H13.2347L12.7935 19.2641C12.6577 19.4994 12.5652 19.7477 12.5135 20H5.25C3.45507 20 2 18.5449 2 16.75V5.25ZM5.25 3.5C4.2835 3.5 3.5 4.2835 3.5 5.25V5.5H18.5V5.25C18.5 4.2835 17.7165 3.5 16.75 3.5H5.25Z"/>
</mask>
<path d="M2 5.25C2 3.45507 3.45507 2 5.25 2H16.75C18.5449 2 20 3.45507 20 5.25V8.00934C19.4951 7.95675 18.9878 7.99076 18.5 8.10566V7H3.5V16.75C3.5 17.7165 4.2835 18.5 5.25 18.5H13.2347L12.7935 19.2641C12.6577 19.4994 12.5652 19.7477 12.5135 20H5.25C3.45507 20 2 18.5449 2 16.75V5.25ZM5.25 3.5C4.2835 3.5 3.5 4.2835 3.5 5.25V5.5H18.5V5.25C18.5 4.2835 17.7165 3.5 16.75 3.5H5.25Z" fill="#FFE74C"/>
<path d="M20 8.00934L19.7928 9.99858L22 10.2285V8.00934H20ZM18.5 8.10566H16.5V10.6315L18.9585 10.0524L18.5 8.10566ZM18.5 7H20.5V5H18.5V7ZM3.5 7V5H1.5V7H3.5ZM13.2347 18.5L14.9667 19.5001L16.699 16.5H13.2347V18.5ZM12.7935 19.2641L11.0615 18.264L11.0613 18.2644L12.7935 19.2641ZM12.5135 20V22H14.1452L14.4728 20.4015L12.5135 20ZM3.5 5.5H1.5V7.5H3.5V5.5ZM18.5 5.5V7.5H20.5V5.5H18.5ZM4 5.25C4 4.55964 4.55964 4 5.25 4V0C2.3505 0 0 2.3505 0 5.25H4ZM5.25 4H16.75V0H5.25V4ZM16.75 4C17.4403 4 18 4.55965 18 5.25H22C22 2.35049 19.6495 0 16.75 0V4ZM18 5.25V8.00934H22V5.25H18ZM20.2072 6.0201C19.4767 5.94402 18.7444 5.99336 18.0415 6.15894L18.9585 10.0524C19.2312 9.98816 19.5135 9.96949 19.7928 9.99858L20.2072 6.0201ZM20.5 8.10566V7H16.5V8.10566H20.5ZM18.5 5H3.5V9H18.5V5ZM1.5 7V16.75H5.5V7H1.5ZM1.5 16.75C1.5 18.8211 3.17893 20.5 5.25 20.5V16.5C5.38807 16.5 5.5 16.6119 5.5 16.75H1.5ZM5.25 20.5H13.2347V16.5H5.25V20.5ZM11.5027 17.4999L11.0615 18.264L14.5255 20.2642L14.9667 19.5001L11.5027 17.4999ZM11.0613 18.2644C10.8169 18.6879 10.6485 19.1385 10.5542 19.5985L14.4728 20.4015C14.4819 20.3569 14.4985 20.3109 14.5257 20.2638L11.0613 18.2644ZM12.5135 18H5.25V22H12.5135V18ZM5.25 18C4.55965 18 4 17.4403 4 16.75H0C0 19.6495 2.35049 22 5.25 22V18ZM4 16.75V5.25H0V16.75H4ZM5.25 1.5C3.17893 1.5 1.5 3.17893 1.5 5.25H5.5C5.5 5.38807 5.38807 5.5 5.25 5.5V1.5ZM1.5 5.25V5.5H5.5V5.25H1.5ZM3.5 7.5H18.5V3.5H3.5V7.5ZM20.5 5.5V5.25H16.5V5.5H20.5ZM20.5 5.25C20.5 3.17893 18.8211 1.5 16.75 1.5V5.5C16.6119 5.5 16.5 5.38807 16.5 5.25H20.5ZM16.75 1.5H5.25V5.5H16.75V1.5Z" fill="#FFE74C" mask="url(#path-1-inside-1_56_13)"/>
<path d="M17.6554 11.4021C17.0943 12.3738 17.371 13.5996 18.2618 14.242L18.4483 14.3621C19.4198 14.9228 20.6449 14.646 21.2872 13.7556L21.4073 13.5691L22.0304 12.489C22.0302 12.8495 21.953 13.2138 21.7901 13.5564L21.6964 13.7361C21.1944 14.6054 20.2478 15.0608 19.3058 14.9763L18.67 14.9197L18.3507 15.4724L15.3194 20.7224C15.2088 20.9141 14.9805 20.9956 14.7784 20.9285L14.6935 20.8904C14.5235 20.7923 14.4388 20.6001 14.4698 20.4168L14.4903 20.3396L14.4913 20.3387C14.4999 20.3147 14.5109 20.2897 14.5255 20.2644L17.5509 15.0242L17.8731 14.4666L17.4981 13.9422C16.9785 13.2155 16.8733 12.2422 17.2784 11.4021L17.3663 11.2361C17.5934 10.8428 17.9111 10.5342 18.2784 10.3221L17.6554 11.4021Z" fill="#FFE74C" stroke="#FFE74C" stroke-width="2"/>
<mask id="path-4-inside-2_56_13" fill="white">
<path d="M15.1652 13.5745C14.9952 12.8933 14.9834 12.1718 15.1463 11.4698L12.8579 9.17831C12.6628 8.98291 12.3462 8.98269 12.1508 9.17782C11.9554 9.37295 11.9552 9.68953 12.1503 9.88493L14.7934 12.5316L12.1503 15.1783C11.9552 15.3737 11.9554 15.6903 12.1508 15.8854C12.3462 16.0805 12.6628 16.0803 12.8579 15.8849L15.1652 13.5745Z"/>
</mask>
<path d="M15.1652 13.5745C14.9952 12.8933 14.9834 12.1718 15.1463 11.4698L12.8579 9.17831C12.6628 8.98291 12.3462 8.98269 12.1508 9.17782C11.9554 9.37295 11.9552 9.68953 12.1503 9.88493L14.7934 12.5316L12.1503 15.1783C11.9552 15.3737 11.9554 15.6903 12.1508 15.8854C12.3462 16.0805 12.6628 16.0803 12.8579 15.8849L15.1652 13.5745Z" fill="#FFE74C"/>
<path d="M15.1652 13.5745L16.5804 14.9878L17.3795 14.1875L17.1057 13.0902L15.1652 13.5745ZM15.1463 11.4698L17.0945 11.9219L17.3453 10.8414L16.5615 10.0565L15.1463 11.4698ZM12.8579 9.17831L11.4426 10.5914L11.4427 10.5916L12.8579 9.17831ZM12.1503 9.88493L10.735 11.2981L10.7351 11.2982L12.1503 9.88493ZM14.7934 12.5316L16.2086 13.9449L17.6199 12.5316L16.2086 11.1183L14.7934 12.5316ZM12.1503 15.1783L10.7351 13.765L10.735 13.7652L12.1503 15.1783ZM12.8579 15.8849L11.4427 14.4716L11.4426 14.4718L12.8579 15.8849ZM17.1057 13.0902C17.0106 12.7092 17.0048 12.3087 17.0945 11.9219L13.1981 11.0177C12.962 12.0349 12.9798 13.0774 13.2247 14.0588L17.1057 13.0902ZM16.5615 10.0565L14.2731 7.76505L11.4427 10.5916L13.7311 12.8831L16.5615 10.0565ZM14.2732 7.76518C13.2975 6.788 11.7145 6.78704 10.7376 7.76263L13.564 10.593C12.9779 11.1783 12.0281 11.1778 11.4426 10.5914L14.2732 7.76518ZM10.7376 7.76263C9.76049 8.73835 9.75962 10.3212 10.735 11.2981L13.5656 8.4718C14.1508 9.05788 14.1503 10.0076 13.564 10.593L10.7376 7.76263ZM10.7351 11.2982L13.3782 13.9449L16.2086 11.1183L13.5655 8.47167L10.7351 11.2982ZM13.3782 11.1183L10.7351 13.765L13.5655 16.5916L16.2086 13.9449L13.3782 11.1183ZM10.735 13.7652C9.75968 14.742 9.7604 16.3249 10.7377 17.3007L13.5639 14.4701C14.1504 15.0557 14.1507 16.0054 13.5656 16.5914L10.735 13.7652ZM10.7377 17.3007C11.7145 18.276 13.2974 18.2753 14.2732 17.298L11.4426 14.4718C12.0282 13.8853 12.9779 13.885 13.5639 14.4701L10.7377 17.3007ZM14.2731 17.2982L16.5804 14.9878L13.75 12.1612L11.4427 14.4716L14.2731 17.2982Z" fill="#FFE74C" mask="url(#path-4-inside-2_56_13)"/>
<mask id="path-6-inside-3_56_13" fill="white">
<path d="M9.85672 9.88537C10.0521 9.69021 10.0523 9.37363 9.85711 9.17826C9.66196 8.98289 9.34538 8.98271 9.15001 9.17787L6.14664 12.1779C6.05275 12.2717 6 12.3989 6 12.5316C6 12.6643 6.05276 12.7916 6.14665 12.8854L9.15001 15.8854C9.34538 16.0805 9.66196 16.0803 9.85711 15.885C10.0523 15.6896 10.0521 15.373 9.85672 15.1779L7.2075 12.5316L9.85672 9.88537Z"/>
</mask>
<path d="M9.85672 9.88537C10.0521 9.69021 10.0523 9.37363 9.85711 9.17826C9.66196 8.98289 9.34538 8.98271 9.15001 9.17787L6.14664 12.1779C6.05275 12.2717 6 12.3989 6 12.5316C6 12.6643 6.05276 12.7916 6.14665 12.8854L9.15001 15.8854C9.34538 16.0805 9.66196 16.0803 9.85711 15.885C10.0523 15.6896 10.0521 15.373 9.85672 15.1779L7.2075 12.5316L9.85672 9.88537Z" fill="#FFE74C"/>
<path d="M9.85672 9.88537L11.2701 11.3004L11.2701 11.3004L9.85672 9.88537ZM9.85711 9.17826L8.4421 10.5917L8.44224 10.5918L9.85711 9.17826ZM9.15001 9.17787L10.5634 10.5929L10.5635 10.5928L9.15001 9.17787ZM6.14664 12.1779L4.73321 10.7629L4.7331 10.763L6.14664 12.1779ZM6.14665 12.8854L4.73311 14.3003L4.73323 14.3004L6.14665 12.8854ZM9.15001 15.8854L7.73659 17.3004L7.73677 17.3006L9.15001 15.8854ZM9.85711 15.885L11.2719 17.2987L11.2721 17.2985L9.85711 15.885ZM9.85672 15.1779L8.44329 16.5929L8.44352 16.5931L9.85672 15.1779ZM7.2075 12.5316L5.79409 11.1166L4.37749 12.5316L5.79407 13.9466L7.2075 12.5316ZM11.2701 11.3004C12.2469 10.3247 12.2481 8.74171 11.272 7.7647L8.44224 10.5918C7.85652 10.0056 7.85731 9.05569 8.4433 8.47036L11.2701 11.3004ZM11.2721 7.76484C10.2964 6.78799 8.71343 6.78708 7.73656 7.7629L10.5635 10.5928C9.97733 11.1783 9.02756 11.1778 8.4421 10.5917L11.2721 7.76484ZM7.73658 7.76287L4.73321 10.7629L7.56007 13.5929L10.5634 10.5929L7.73658 7.76287ZM4.7331 10.763C4.26394 11.2317 4 11.8678 4 12.5316H8C8 12.93 7.84156 13.3117 7.56018 13.5928L4.7331 10.763ZM4 12.5316C4 13.195 4.26372 13.8314 4.73311 14.3003L7.56019 11.4705C7.8418 11.7518 8 12.1336 8 12.5316H4ZM4.73323 14.3004L7.73659 17.3004L10.5634 14.4704L7.56007 11.4704L4.73323 14.3004ZM7.73677 17.3006C8.71369 18.2762 10.2963 18.275 11.2719 17.2987L8.44235 14.4713C9.02766 13.8856 9.97707 13.8848 10.5632 14.4702L7.73677 17.3006ZM11.2721 17.2985C12.2479 16.3216 12.2471 14.7385 11.2699 13.7627L8.44352 16.5931C7.85706 16.0075 7.85673 15.0576 8.44214 14.4715L11.2721 17.2985ZM11.2702 13.7629L8.62093 11.1166L5.79407 13.9466L8.44329 16.5929L11.2702 13.7629ZM8.62091 13.9466L11.2701 11.3004L8.44331 8.47036L5.79409 11.1166L8.62091 13.9466Z" fill="#FFE74C" mask="url(#path-6-inside-3_56_13)"/>
</svg>
